/* XPM */
static char *majorhighway[]={
"16 7 2 1",
". c #000000",
"# c #0000ff",
"................",
"################",
"################",
"################",
"################",
"################",
"................"};
