/* XPM */
static char *railroad[]={
"16 4 2 1",
". c #000000",
"# c #ffffff",
"................",
"........########",
"........########",
"................"};
