<?xml version="1.0" encoding="UTF-8" standalone="no"?>
<!-- Created with Inkscape (http://www.inkscape.org/) -->
<svg
   xmlns:dc="http://purl.org/dc/elements/1.1/"
   xmlns:cc="http://creativecommons.org/ns#"
   xmlns:rdf="http://www.w3.org/1999/02/22-rdf-syntax-ns#"
   xmlns:svg="http://www.w3.org/2000/svg"
   xmlns="http://www.w3.org/2000/svg"
   xmlns:sodipodi="http://sodipodi.sourceforge.net/DTD/sodipodi-0.dtd"
   xmlns:inkscape="http://www.inkscape.org/namespaces/inkscape"
   width="16"
   height="16"
   id="svg2"
   sodipodi:version="0.32"
   inkscape:version="0.46"
   version="1.0"
   sodipodi:docname="3D.svg"
   inkscape:output_extension="org.inkscape.output.svg.inkscape"
   inkscape:export-filename="/home/oeichler/Documents/cpp/QLandkarteGT/src/icons/3D.png"
   inkscape:export-xdpi="90"
   inkscape:export-ydpi="90">
  <defs
     id="defs4">
    <inkscape:perspective
       sodipodi:type="inkscape:persp3d"
       inkscape:vp_x="0 : 526.18109 : 1"
       inkscape:vp_y="0 : 1000 : 0"
       inkscape:vp_z="744.09448 : 526.18109 : 1"
       inkscape:persp3d-origin="372.04724 : 350.78739 : 1"
       id="perspective10" />
  </defs>
  <sodipodi:namedview
     id="base"
     pagecolor="#ffffff"
     bordercolor="#666666"
     borderopacity="1.0"
     inkscape:pageopacity="0.0"
     inkscape:pageshadow="2"
     inkscape:zoom="30.875"
     inkscape:cx="3.4170039"
     inkscape:cy="12.280143"
     inkscape:document-units="px"
     inkscape:current-layer="layer1"
     showgrid="true"
     inkscape:snap-global="true"
     inkscape:object-paths="false"
     inkscape:object-nodes="false"
     inkscape:snap-intersection-line-segments="true"
     inkscape:window-width="1920"
     inkscape:window-height="1115"
     inkscape:window-x="0"
     inkscape:window-y="0">
    <inkscape:grid
       type="xygrid"
       id="grid2383"
       visible="true"
       enabled="true" />
  </sodipodi:namedview>
  <metadata
     id="metadata7">
    <rdf:RDF>
      <cc:Work
         rdf:about="">
        <dc:format>image/svg+xml</dc:format>
        <dc:type
           rdf:resource="http://purl.org/dc/dcmitype/StillImage" />
      </cc:Work>
    </rdf:RDF>
  </metadata>
  <g
     inkscape:label="Ebene 1"
     inkscape:groupmode="layer"
     id="layer1">
    <path
       style="font-size:10px;font-style:normal;font-variant:normal;font-weight:normal;font-stretch:normal;text-align:start;line-height:125%;writing-mode:lr-tb;text-anchor:start;fill:none;fill-opacity:1;stroke:#ffffff;stroke-width:2;stroke-linecap:butt;stroke-linejoin:miter;stroke-opacity:1;font-family:Arial Black;-inkscape-font-specification:Arial Black;stroke-miterlimit:4;stroke-dasharray:none"
       d="M 3.0343672,5.1510769 L 1.1099658,4.5149097 C 1.2699153,3.3839567 1.5764864,2.5172948 2.0296797,1.9149212 C 2.4862025,1.3125732 3.1310013,1.0113928 3.9640779,1.011379 C 4.9204428,1.0113928 5.6118937,1.3402326 6.0384326,1.9978995 C 6.4649608,2.6555919 6.6782276,3.4823014 6.6782336,4.4780302 C 6.6782276,5.0619617 6.591588,5.590564 6.4183144,6.0638389 C 6.2450294,6.5371311 5.9834444,6.9520223 5.6335587,7.3085142 C 5.9167985,7.4375987 6.1333977,7.588189 6.2833564,7.7602852 C 6.5266083,8.0368864 6.7148828,8.4026054 6.8481807,8.8574435 C 6.9847986,9.3061466 7.0531106,9.8439689 7.053117,10.470912 C 7.0531106,11.257673 6.9414788,12.013697 6.7182212,12.738987 C 6.4949514,13.458133 6.1733851,14.014395 5.7535213,14.407773 C 5.3336472,14.795005 4.7821526,14.988621 4.0990359,14.988621 C 3.4325738,14.988621 2.9060715,14.844178 2.5195273,14.555291 C 2.1363117,14.266401 1.8197438,13.845367 1.5698227,13.292176 C 1.323232,12.732842 1.1332913,12.032136 1,11.190057 L 3.0343672,10.692187 C 3.1143399,11.448216 3.2376347,11.973745 3.4042521,12.268775 C 3.5741963,12.557664 3.7891293,12.702109 4.0490515,12.702108 C 4.3222962,12.702109 4.5488921,12.517714 4.7288401,12.148918 C 4.9121121,11.780129 5.0037501,11.288405 5.0037545,10.673747 C 5.0037501,10.046805 4.9154443,9.561228 4.7388369,9.2170164 C 4.5655536,8.8728156 4.3289607,8.7007127 4.0290578,8.7007065 C 3.8691043,8.7007127 3.6491729,8.774471 3.369263,8.9219822 L 3.4742304,6.2390153 C 3.5875255,6.2697567 3.6758313,6.2851229 3.7391479,6.2851145 C 4.0057283,6.2851229 4.2273259,6.1283861 4.4039411,5.8149037 C 4.5838812,5.5014392 4.6738531,5.1295737 4.6738572,4.6993059 C 4.6738531,4.2874978 4.6072072,3.9586579 4.4739194,3.7127854 C 4.3406238,3.4669349 4.1573476,3.3440041 3.9240904,3.3439927 C 3.684162,3.3440041 3.4892228,3.479228 3.3392723,3.7496646 C 3.1893165,4.0139769 3.0876815,4.4811139 3.0343672,5.1510769 M 8.2577422,1.2418744 L 11.621696,1.2418744 C 12.284817,1.2418879 12.81965,1.4078446 13.226195,1.7397446 C 13.636063,2.0716707 13.97429,2.5480276 14.24088,3.1688164 C 14.507457,3.7896283 14.700731,4.5118465 14.820701,5.3354733 C 14.940656,6.1591189 15.000637,7.0319274 15.000644,7.9539012 C 15.000637,9.3983446 14.910665,10.520088 14.730728,11.319134 C 14.554109,12.112042 14.307519,12.778941 13.990959,13.319835 C 13.674384,13.854585 13.33449,14.211085 12.971276,14.389333 C 12.474759,14.635196 12.024898,14.758126 11.621696,14.758126 L 8.2577422,14.758126 L 8.2577422,1.2418744 M 10.522038,4.3028537 L 10.522038,11.687928 L 11.076865,11.687928 C 11.550047,11.68793 11.886608,11.592659 12.086551,11.402113 C 12.286484,11.205426 12.443102,10.867368 12.556405,10.387933 C 12.669698,9.9023608 12.726347,9.1186772 12.726352,8.0368798 C 12.726347,6.6047428 12.599719,5.62437 12.346469,5.0957581 C 12.09321,4.5671653 11.673342,4.3028642 11.086862,4.3028537 L 10.522038,4.3028537"
       id="path3189" />
    <path
       style="font-size:10px;font-style:normal;font-variant:normal;font-weight:normal;font-stretch:normal;text-align:start;line-height:125%;writing-mode:lr-tb;text-anchor:start;fill:#000080;fill-opacity:1;stroke:none;stroke-width:1px;stroke-linecap:butt;stroke-linejoin:miter;stroke-opacity:1;font-family:Arial Black;-inkscape-font-specification:Arial Black"
       d="M 3.0337029,5.1509229 L 1.1093016,4.5147557 C 1.2692511,3.3838027 1.5758222,2.5171408 2.0290155,1.9147672 C 2.4855383,1.3124192 3.130337,1.0112388 3.9634136,1.011225 C 4.9197785,1.0112388 5.6112294,1.3400786 6.0377683,1.9977455 C 6.4642965,2.6554379 6.6775633,3.4821474 6.6775693,4.4778762 C 6.6775633,5.0618077 6.5909237,5.59041 6.4176501,6.0636849 C 6.2443651,6.5369771 5.9827801,6.9518683 5.6328944,7.3083602 C 5.9161342,7.4374447 6.1327334,7.588035 6.2826921,7.7601312 C 6.525944,8.0367324 6.7142185,8.4024514 6.8475164,8.8572895 C 6.9841343,9.3059926 7.0524463,9.8438149 7.0524527,10.470758 C 7.0524463,11.257519 6.9408145,12.013543 6.7175569,12.738833 C 6.4942871,13.457979 6.1727208,14.014241 5.752857,14.407619 C 5.3329829,14.794851 4.7814883,14.988467 4.0983716,14.988467 C 3.4319095,14.988467 2.9054072,14.844024 2.5188631,14.555137 C 2.1356475,14.266247 1.8190796,13.845213 1.5691585,13.292022 C 1.3225678,12.732688 1.1326271,12.031982 0.99933579,11.189903 L 3.0337029,10.692033 C 3.1136756,11.448062 3.2369704,11.973591 3.4035878,12.268621 C 3.573532,12.55751 3.788465,12.701955 4.0483872,12.701954 C 4.3216319,12.701955 4.5482278,12.51756 4.7281758,12.148764 C 4.9114478,11.779975 5.0030858,11.288251 5.0030902,10.673593 C 5.0030858,10.046651 4.91478,9.561074 4.7381726,9.2168624 C 4.5648893,8.8726616 4.3282964,8.7005587 4.0283935,8.7005525 C 3.86844,8.7005587 3.6485086,8.774317 3.3685987,8.9218282 L 3.4735661,6.2388613 C 3.5868612,6.2696027 3.675167,6.2849689 3.7384836,6.2849605 C 4.005064,6.2849689 4.2266616,6.1282321 4.4032768,5.8147497 C 4.5832169,5.5012852 4.6731888,5.1294197 4.6731929,4.6991519 C 4.6731888,4.2873438 4.6065429,3.9585039 4.4732551,3.7126314 C 4.3399595,3.4667809 4.1566833,3.3438501 3.9234261,3.3438387 C 3.6834977,3.3438501 3.4885585,3.479074 3.338608,3.7495106 C 3.1886522,4.0138229 3.0870172,4.4809599 3.0337029,5.1509229 M 8.2570779,1.2417204 L 11.621032,1.2417204 C 12.284153,1.2417339 12.818986,1.4076906 13.225531,1.7395906 C 13.635399,2.0715167 13.973626,2.5478736 14.240216,3.1686624 C 14.506793,3.7894743 14.700067,4.5116925 14.820037,5.3353193 C 14.939992,6.1589649 14.999973,7.0317734 14.99998,7.9537472 C 14.999973,9.3981906 14.910001,10.519934 14.730064,11.31898 C 14.553445,12.111888 14.306855,12.778787 13.990295,13.319681 C 13.67372,13.854431 13.333826,14.210931 12.970612,14.389179 C 12.474095,14.635042 12.024234,14.757972 11.621032,14.757972 L 8.2570779,14.757972 L 8.2570779,1.2417204 M 10.521374,4.3026997 L 10.521374,11.687774 L 11.076201,11.687774 C 11.549383,11.687776 11.885944,11.592505 12.085887,11.401959 C 12.28582,11.205272 12.442438,10.867214 12.555741,10.387779 C 12.669034,9.9022068 12.725683,9.1185232 12.725688,8.0367258 C 12.725683,6.6045888 12.599055,5.624216 12.345805,5.0956041 C 12.092546,4.5670113 11.672678,4.3027102 11.086198,4.3026997 L 10.521374,4.3026997"
       id="text2412" />
  </g>
</svg>
